<svg width="62" height="62" viewBox="0 0 62 62" fill="none" xmlns="http://www.w3.org/2000/svg">
<path d="M31 62C37.1312 62 43.1247 60.1819 48.2227 56.7756C53.3206 53.3692 57.2939 48.5277 59.6403 42.8632C61.9866 37.1987 62.6005 30.9656 61.4043 24.9522C60.2082 18.9388 57.2557 13.4151 52.9203 9.0797C48.5849 4.74427 43.0612 1.79181 37.0478 0.595667C31.0344 -0.600474 24.8013 0.0134245 19.1368 2.35974C13.4723 4.70606 8.63077 8.6794 5.22444 13.7773C1.81812 18.8753 -5.68583e-07 24.8688 -1.10459e-06 31C0.0163823 39.2167 3.28771 47.0921 9.09778 52.9022C14.9079 58.7123 22.7833 61.9836 31 62ZM31 2.48001C36.6407 2.48001 42.1548 4.15268 46.8449 7.28649C51.5349 10.4203 55.1904 14.8745 57.349 20.0859C59.5076 25.2972 60.0724 31.0316 58.972 36.564C57.8715 42.0963 55.1553 47.1781 51.1667 51.1667C47.1781 55.1553 42.0963 57.8715 36.564 58.972C31.0316 60.0724 25.2972 59.5077 20.0859 57.349C14.8745 55.1904 10.4203 51.535 7.28648 46.8449C4.15267 42.1548 2.48 36.6407 2.48 31C2.4882 23.4385 5.49562 16.1891 10.8424 10.8424C16.1891 5.49563 23.4385 2.48821 31 2.48001ZM17.36 31C17.36 30.6711 17.4906 30.3557 17.7232 30.1232C17.9557 29.8906 18.2711 29.76 18.6 29.76L40.393 29.76L31.992 21.359C31.7698 21.1185 31.6464 20.803 31.6464 20.4755C31.6464 20.148 31.7698 19.8326 31.992 19.592C32.1106 19.4767 32.2515 19.3869 32.4061 19.3283C32.5608 19.2696 32.7258 19.2433 32.891 19.251C33.0513 19.2458 33.2109 19.2733 33.3602 19.332C33.5094 19.3906 33.6451 19.4791 33.759 19.592L44.268 30.132C44.3842 30.2447 44.4767 30.3796 44.5398 30.5287C44.6029 30.6778 44.6354 30.8381 44.6354 31C44.6354 31.1619 44.6029 31.3222 44.5398 31.4713C44.4767 31.6204 44.3842 31.7553 44.268 31.868L33.759 42.408C33.5247 42.6423 33.2069 42.774 32.8755 42.774C32.5441 42.774 32.2263 42.6423 31.992 42.408C31.7577 42.1737 31.626 41.8559 31.626 41.5245C31.626 41.1931 31.7577 40.8753 31.992 40.641L40.393 32.24L18.6 32.24C18.2711 32.24 17.9557 32.1094 17.7232 31.8768C17.4906 31.6443 17.36 31.3289 17.36 31Z" fill="#FFA800"/>
</svg>
