<svg width="12" height="21" viewBox="0 0 12 21" fill="none" xmlns="http://www.w3.org/2000/svg">
<path d="M2.2451 1.02092L11.0211 9.77092C11.1253 9.87508 11.1993 9.98793 11.243 10.1095C11.2868 10.231 11.3083 10.3612 11.3076 10.5001C11.3076 10.639 11.2861 10.7692 11.243 10.8907C11.2 11.0122 11.126 11.1251 11.0211 11.2292L2.2451 20.0053C2.00205 20.2483 1.69823 20.3699 1.33364 20.3699C0.969059 20.3699 0.656559 20.2397 0.396143 19.9792C0.135726 19.7188 0.00551804 19.415 0.00551807 19.0678C0.0055181 18.7206 0.135726 18.4167 0.396143 18.1563L8.05239 10.5001L0.396144 2.84383C0.153089 2.60078 0.0315606 2.30113 0.0315606 1.94487C0.0315606 1.58863 0.161769 1.28064 0.422186 1.02092C0.682603 0.760499 0.986421 0.63029 1.33364 0.63029C1.68087 0.63029 1.98469 0.760499 2.2451 1.02092Z" fill="white"/>
</svg>
