<svg width="38" height="38" viewBox="0 0 38 38" fill="none" xmlns="http://www.w3.org/2000/svg">
<path d="M19 0.25C15.2916 0.25 11.6665 1.34967 8.58307 3.40995C5.49965 5.47022 3.09641 8.39857 1.67727 11.8247C0.258124 15.2508 -0.113188 19.0208 0.610285 22.6579C1.33376 26.2951 3.11952 29.636 5.74176 32.2583C8.36399 34.8805 11.7049 36.6663 15.3421 37.3897C18.9792 38.1132 22.7492 37.7419 26.1753 36.3227C29.6014 34.9036 32.5298 32.5004 34.5901 29.4169C36.6503 26.3335 37.75 22.7084 37.75 19C37.7401 14.0302 35.7615 9.26686 32.2473 5.75269C28.7332 2.23853 23.9698 0.25991 19 0.25ZM19 36.25C15.5883 36.25 12.2532 35.2383 9.41642 33.3429C6.57967 31.4474 4.3687 28.7533 3.06309 25.6013C1.75747 22.4493 1.41587 18.9809 2.08146 15.6347C2.74706 12.2885 4.38996 9.21486 6.80242 6.80241C9.21487 4.38995 12.2885 2.74705 15.6347 2.08145C18.9809 1.41586 22.4493 1.75747 25.6013 3.06308C28.7533 4.36869 31.4474 6.57967 33.3429 9.41641C35.2383 12.2532 36.25 15.5883 36.25 19C36.245 23.5735 34.426 27.9582 31.1921 31.1921C27.9582 34.426 23.5735 36.245 19 36.25ZM27.25 19C27.25 19.1989 27.171 19.3897 27.0303 19.5303C26.8897 19.671 26.6989 19.75 26.5 19.75H13.3188L18.4 24.8313C18.5344 24.9767 18.6091 25.1675 18.6091 25.3656C18.6091 25.5637 18.5344 25.7545 18.4 25.9C18.3283 25.9697 18.243 26.024 18.1495 26.0595C18.056 26.095 17.9562 26.1109 17.8563 26.1063C17.7593 26.1094 17.6628 26.0928 17.5725 26.0573C17.4822 26.0218 17.4001 25.9683 17.3313 25.9L10.975 19.525C10.9047 19.4568 10.8488 19.3752 10.8106 19.2851C10.7724 19.1949 10.7528 19.0979 10.7528 19C10.7528 18.9021 10.7724 18.8051 10.8106 18.715C10.8488 18.6248 10.9047 18.5432 10.975 18.475L17.3313 12.1C17.473 11.9583 17.6652 11.8787 17.8656 11.8787C18.0661 11.8787 18.2583 11.9583 18.4 12.1C18.5417 12.2417 18.6214 12.4339 18.6214 12.6344C18.6214 12.8348 18.5417 13.027 18.4 13.1688L13.3188 18.25H26.5C26.6989 18.25 26.8897 18.329 27.0303 18.4697C27.171 18.6103 27.25 18.8011 27.25 19Z" fill="white"/>
</svg>
