<svg width="38" height="38" viewBox="0 0 38 38" fill="none" xmlns="http://www.w3.org/2000/svg">
<path d="M19 37.75C22.7084 37.75 26.3335 36.6503 29.4169 34.5901C32.5004 32.5298 34.9036 29.6014 36.3227 26.1753C37.7419 22.7492 38.1132 18.9792 37.3897 15.3421C36.6662 11.7049 34.8805 8.36398 32.2582 5.74174C29.636 3.11951 26.2951 1.33375 22.6579 0.610274C19.0208 -0.113199 15.2508 0.258112 11.8247 1.67725C8.39856 3.09639 5.47021 5.49963 3.40994 8.58305C1.34966 11.6665 0.249991 15.2916 0.24999 19C0.2599 23.9698 2.23852 28.7331 5.75268 32.2473C9.26684 35.7615 14.0302 37.7401 19 37.75ZM19 1.74999C22.4117 1.74999 25.7468 2.76169 28.5836 4.65715C31.4203 6.5526 33.6313 9.24668 34.9369 12.3987C36.2425 15.5507 36.5841 19.0191 35.9185 22.3653C35.2529 25.7115 33.61 28.7851 31.1976 31.1976C28.7851 33.61 25.7115 35.2529 22.3653 35.9185C19.0191 36.5841 15.5507 36.2425 12.3987 34.9369C9.24667 33.6313 6.55259 31.4203 4.65714 28.5836C2.76169 25.7468 1.74999 22.4117 1.74999 19C1.75495 14.4265 3.57395 10.0418 6.80788 6.80789C10.0418 3.57396 14.4265 1.75496 19 1.74999ZM10.75 19C10.75 18.8011 10.829 18.6103 10.9697 18.4697C11.1103 18.329 11.3011 18.25 11.5 18.25L24.6812 18.25L19.6 13.1687C19.4656 13.0233 19.3909 12.8324 19.3909 12.6344C19.3909 12.4363 19.4656 12.2455 19.6 12.1C19.6717 12.0303 19.757 11.976 19.8505 11.9405C19.944 11.905 20.0438 11.8891 20.1437 11.8937C20.2407 11.8906 20.3372 11.9072 20.4275 11.9427C20.5178 11.9782 20.5999 12.0317 20.6687 12.1L27.025 18.475C27.0953 18.5432 27.1512 18.6248 27.1894 18.7149C27.2276 18.8051 27.2472 18.9021 27.2472 19C27.2472 19.0979 27.2276 19.1949 27.1894 19.285C27.1512 19.3752 27.0953 19.4568 27.025 19.525L20.6687 25.9C20.527 26.0417 20.3348 26.1213 20.1344 26.1213C19.9339 26.1213 19.7417 26.0417 19.6 25.9C19.4583 25.7583 19.3786 25.5661 19.3786 25.3656C19.3786 25.1652 19.4583 24.973 19.6 24.8312L24.6812 19.75L11.5 19.75C11.3011 19.75 11.1103 19.671 10.9697 19.5303C10.829 19.3897 10.75 19.1989 10.75 19Z" fill="white"/>
</svg>
