<svg width="62" height="62" viewBox="0 0 62 62" fill="none" xmlns="http://www.w3.org/2000/svg">
<path d="M31 0C24.8688 0 18.8753 1.81812 13.7773 5.22444C8.67941 8.63076 4.70606 13.4723 2.35975 19.1368C0.0134313 24.8013 -0.600471 31.0344 0.59567 37.0478C1.79181 43.0612 4.74428 48.5849 9.0797 52.9203C13.4151 57.2557 18.9388 60.2082 24.9522 61.4043C30.9656 62.6005 37.1987 61.9866 42.8632 59.6403C48.5277 57.2939 53.3692 53.3206 56.7756 48.2227C60.1819 43.1247 62 37.1312 62 31C61.9836 22.7833 58.7123 14.9079 52.9022 9.09779C47.0921 3.28771 39.2167 0.0163842 31 0ZM31 59.52C25.3593 59.52 19.8452 57.8473 15.1551 54.7135C10.4651 51.5797 6.80958 47.1255 4.65097 41.9141C2.49236 36.7028 1.92757 30.9684 3.02802 25.436C4.12847 19.9037 6.84473 14.8219 10.8333 10.8333C14.8219 6.84472 19.9037 4.12845 25.436 3.028C30.9684 1.92755 36.7028 2.49234 41.9141 4.65095C47.1255 6.80957 51.5797 10.465 54.7135 15.1551C57.8473 19.8452 59.52 25.3593 59.52 31C59.5118 38.5614 56.5044 45.8109 51.1576 51.1576C45.8109 56.5044 38.5615 59.5118 31 59.52ZM44.64 31C44.64 31.3289 44.5094 31.6443 44.2768 31.8768C44.0443 32.1094 43.7289 32.24 43.4 32.24L21.607 32.24L30.008 40.641C30.2302 40.8815 30.3536 41.197 30.3536 41.5245C30.3536 41.852 30.2302 42.1674 30.008 42.408C29.8895 42.5233 29.7485 42.6131 29.5939 42.6717C29.4392 42.7304 29.2742 42.7567 29.109 42.749C28.9487 42.7542 28.7891 42.7267 28.6398 42.668C28.4906 42.6094 28.3549 42.5209 28.241 42.408L17.732 31.868C17.6158 31.7553 17.5233 31.6204 17.4602 31.4713C17.3971 31.3222 17.3646 31.1619 17.3646 31C17.3646 30.8381 17.3971 30.6778 17.4602 30.5287C17.5233 30.3796 17.6158 30.2447 17.732 30.132L28.241 19.592C28.4753 19.3577 28.7931 19.226 29.1245 19.226C29.4559 19.226 29.7737 19.3577 30.008 19.592C30.2423 19.8263 30.374 20.1441 30.374 20.4755C30.374 20.8069 30.2423 21.1247 30.008 21.359L21.607 29.76L43.4 29.76C43.7289 29.76 44.0443 29.8906 44.2768 30.1232C44.5094 30.3557 44.64 30.6711 44.64 31Z" fill="#B0CC0D"/>
</svg>
