<svg width="36" height="36" viewBox="0 0 36 36" fill="none" xmlns="http://www.w3.org/2000/svg">
<path fill-rule="evenodd" clip-rule="evenodd" d="M30 10C30 9.20435 30.3161 8.44129 30.8787 7.87868C31.4413 7.31607 32.2044 7 33 7C33.7956 7 34.5587 7.31607 35.1213 7.87868C35.6839 8.44129 36 9.20435 36 10V30.303L33 34.803L30 30.303V10ZM33 9C32.7348 9 32.4804 9.10536 32.2929 9.29289C32.1054 9.48043 32 9.73478 32 10V29.697L33 31.197L34 29.697V10C34 9.73478 33.8946 9.48043 33.7071 9.29289C33.5196 9.10536 33.2652 9 33 9Z" fill="white"/>
<path fill-rule="evenodd" clip-rule="evenodd" d="M35 14H31V12H35V14ZM4 2C3.46957 2 2.96086 2.21071 2.58579 2.58579C2.21071 2.96086 2 3.46957 2 4V32C2 32.5304 2.21071 33.0391 2.58579 33.4142C2.96086 33.7893 3.46957 34 4 34H24C24.5304 34 25.0391 33.7893 25.4142 33.4142C25.7893 33.0391 26 32.5304 26 32V4C26 3.46957 25.7893 2.96086 25.4142 2.58579C25.0391 2.21071 24.5304 2 24 2H4ZM0 4C0 2.93913 0.421427 1.92172 1.17157 1.17157C1.92172 0.421427 2.93913 0 4 0H24C25.0609 0 26.0783 0.421427 26.8284 1.17157C27.5786 1.92172 28 2.93913 28 4V32C28 33.0609 27.5786 34.0783 26.8284 34.8284C26.0783 35.5786 25.0609 36 24 36H4C2.93913 36 1.92172 35.5786 1.17157 34.8284C0.421427 34.0783 0 33.0609 0 32V4Z" fill="white"/>
<path fill-rule="evenodd" clip-rule="evenodd" d="M13.9996 9C13.9996 8.73478 14.1049 8.48043 14.2925 8.29289C14.48 8.10536 14.7344 8 14.9996 8H22.9996C23.2648 8 23.5192 8.10536 23.7067 8.29289C23.8942 8.48043 23.9996 8.73478 23.9996 9C23.9996 9.26522 23.8942 9.51957 23.7067 9.70711C23.5192 9.89464 23.2648 10 22.9996 10H14.9996C14.7344 10 14.48 9.89464 14.2925 9.70711C14.1049 9.51957 13.9996 9.26522 13.9996 9ZM13.9996 13C13.9996 12.7348 14.1049 12.4804 14.2925 12.2929C14.48 12.1054 14.7344 12 14.9996 12H22.9996C23.2648 12 23.5192 12.1054 23.7067 12.2929C23.8942 12.4804 23.9996 12.7348 23.9996 13C23.9996 13.2652 23.8942 13.5196 23.7067 13.7071C23.5192 13.8946 23.2648 14 22.9996 14H14.9996C14.7344 14 14.48 13.8946 14.2925 13.7071C14.1049 13.5196 13.9996 13.2652 13.9996 13ZM13.9996 22C13.9996 21.7348 14.1049 21.4804 14.2925 21.2929C14.48 21.1054 14.7344 21 14.9996 21H22.9996C23.2648 21 23.5192 21.1054 23.7067 21.2929C23.8942 21.4804 23.9996 21.7348 23.9996 22C23.9996 22.2652 23.8942 22.5196 23.7067 22.7071C23.5192 22.8946 23.2648 23 22.9996 23H14.9996C14.7344 23 14.48 22.8946 14.2925 22.7071C14.1049 22.5196 13.9996 22.2652 13.9996 22ZM13.9996 26C13.9996 25.7348 14.1049 25.4804 14.2925 25.2929C14.48 25.1054 14.7344 25 14.9996 25H22.9996C23.2648 25 23.5192 25.1054 23.7067 25.2929C23.8942 25.4804 23.9996 25.7348 23.9996 26C23.9996 26.2652 23.8942 26.5196 23.7067 26.7071C23.5192 26.8946 23.2648 27 22.9996 27H14.9996C14.7344 27 14.48 26.8946 14.2925 26.7071C14.1049 26.5196 13.9996 26.2652 13.9996 26ZM5.99959 22V25H8.99959V22H5.99959ZM4.99959 20H9.99959C10.2648 20 10.5192 20.1054 10.7067 20.2929C10.8942 20.4804 10.9996 20.7348 10.9996 21V26C10.9996 26.2652 10.8942 26.5196 10.7067 26.7071C10.5192 26.8946 10.2648 27 9.99959 27H4.99959C4.73438 27 4.48002 26.8946 4.29249 26.7071C4.10495 26.5196 3.99959 26.2652 3.99959 26V21C3.99959 20.7348 4.10495 20.4804 4.29249 20.2929C4.48002 20.1054 4.73438 20 4.99959 20ZM11.7066 8.293C11.8941 8.48053 11.9994 8.73484 11.9994 9C11.9994 9.26516 11.8941 9.51947 11.7066 9.707L6.99959 14.414L4.29259 11.707C4.19708 11.6148 4.1209 11.5044 4.06849 11.3824C4.01608 11.2604 3.9885 11.1292 3.98734 10.9964C3.98619 10.8636 4.01149 10.7319 4.06177 10.609C4.11205 10.4862 4.18631 10.3745 4.2802 10.2806C4.37409 10.1867 4.48574 10.1125 4.60864 10.0622C4.73154 10.0119 4.86321 9.9866 4.99599 9.98775C5.12877 9.9889 5.25999 10.0165 5.382 10.0689C5.504 10.1213 5.61435 10.1975 5.70659 10.293L6.99959 11.586L10.2926 8.293C10.4801 8.10553 10.7344 8.00021 10.9996 8.00021C11.2648 8.00021 11.5191 8.10553 11.7066 8.293Z" fill="white"/>
</svg>
