<svg width="350" height="428" fill="none" xmlns="http://www.w3.org/2000/svg"><path d="M253.555 10.65c141.396-18.873 215.124 98.709 210.392 244.338-11.057 181.056-222.993 207.764-357.799 134.448C-81.55 286.951 9.897 79.689 147.841 18.939 256.259-28.887 442.775 8.88 468.148 189.675c28.994 209.723-169.786 253.607-291 206.737-48.186-18.777-75.176-46.513-94.175-80.555C16.39 174.123 133.766 24.457 277.89 46.34c93.185 14.333 159.453 67.893 158.053 162.589-1.714 73.006-41.209 143.694-112.74 171.549-155.47 59.34-332.692-101.816-279.58-227.951 13.253-31.916 41.474-66.077 80.1-88.94C239.288-7.362 499.507 42.256 448.545 249.9c-6.084 24.75-16.32 47.779-29.597 68.013-96.928 146.632-313.741 92.355-376.967 11.634-32.156-40.922-20.327-80.984-20.786-77.234C8.617 355.991 146.078 407.687 236.536 407.807c139.199 3.32 230.646-115.743 212.782-235.237-15.137-98.495-112.765-133.923-213.41-135.022C114.815 36.426-8.426 147.94 58.156 270.898c73.679 133.875 265.168 162.112 343.096 38.891 50.89-80.53 53.739-231.605-124.038-259.221-244.841-37.458-314.296 375.036 9.898 358.72 119.186-7.024 196.076-82.059 177.994-219.207C440.265 11.438 255.97-25.853 148.854 21.232 13.108 80.836-79.402 285.685 107.018 387.86c133.284 72.767 344.472 47.564 355.843-132.895 4.852-142.547-66.389-262.686-209.257-243.86-.314.047-.387-.43-.073-.479l.024.024z" fill="#B0B0B0" fill-opacity=".41"/></svg>