<svg width="583" height="534" fill="none" xmlns="http://www.w3.org/2000/svg"><path d="M313.852 13.312C488.871-10.268 580.131 136.64 574.274 318.59c-13.686 226.214-276.021 259.583-442.883 167.981C-100.942 358.526 12.251 99.57 182.998 23.668c134.2-59.755 365.07-12.566 396.476 213.319 35.888 262.031-210.161 316.86-360.199 258.3-59.645-23.46-93.053-58.113-116.57-100.646C20.29 217.558 165.577 30.563 343.973 57.904c115.345 17.908 197.371 84.826 195.638 203.141-2.122 91.214-51.009 179.532-139.55 214.334C207.621 549.52-11.744 348.17 53.997 190.575c16.405-39.876 51.337-82.557 99.149-111.121C296.191-9.193 618.29 52.8 555.209 312.234c-7.53 30.921-20.2 59.694-36.635 84.975-119.977 183.204-388.348 115.39-466.61 14.536-39.802-51.129-25.16-101.183-25.728-96.497-15.568 129.538 154.58 194.128 266.549 194.277 172.3 4.149 285.493-144.611 263.381-293.908C537.429 92.557 416.586 48.293 292.008 46.92 142.119 45.517-10.429 184.845 71.986 338.469c91.2 167.265 328.225 202.545 424.684 48.592 62.992-100.616 66.518-289.37-153.534-323.874C40.072 16.386-45.899 531.76 355.388 511.375 502.916 502.6 598.09 408.85 575.708 237.496 544.96 14.296 316.84-32.295 184.253 26.534 16.226 101.003-98.282 356.945 132.467 484.602c164.979 90.916 426.388 59.427 440.462-166.041 6.007-178.099-82.175-328.202-259.018-304.682-.388.06-.478-.537-.089-.597l.03.03z" fill="#fff"/></svg>