<svg width="36" height="36" fill="none" xmlns="http://www.w3.org/2000/svg"><path fill-rule="evenodd" clip-rule="evenodd" d="M30 10a3 3 0 016 0v20.303l-3 4.5-3-4.5V10zm3-1a1 1 0 00-1 1v19.697l1 1.5 1-1.5V10a1 1 0 00-1-1z" fill="#fff"/><path fill-rule="evenodd" clip-rule="evenodd" d="M35 14h-4v-2h4v2zM4 2a2 2 0 00-2 2v28a2 2 0 002 2h20a2 2 0 002-2V4a2 2 0 00-2-2H4zM0 4a4 4 0 014-4h20a4 4 0 014 4v28a4 4 0 01-4 4H4a4 4 0 01-4-4V4z" fill="#fff"/><path fill-rule="evenodd" clip-rule="evenodd" d="M14 9a1 1 0 011-1h8a1 1 0 110 2h-8a1 1 0 01-1-1zm0 4a1 1 0 011-1h8a1 1 0 010 2h-8a1 1 0 01-1-1zm0 9a1 1 0 011-1h8a1 1 0 010 2h-8a1 1 0 01-1-1zm0 4a1 1 0 011-1h8a1 1 0 010 2h-8a1 1 0 01-1-1zm-8-4v3h3v-3H6zm-1-2h5a1 1 0 011 1v5a1 1 0 01-1 1H5a1 1 0 01-1-1v-5a1 1 0 011-1zm6.707-11.707a1 1 0 010 1.414L7 14.414l-2.707-2.707a1 1 0 111.414-1.414L7 11.586l3.293-3.293a1 1 0 011.414 0z" fill="#fff"/></svg>